<svg width="13" height="16" viewBox="0 0 13 16" fill="none" xmlns="http://www.w3.org/2000/svg">
<path d="M5.5 11.2501C5.5 11.6643 5.83579 12.0001 6.25 12.0001C6.66421 12.0001 7 11.6643 7 11.2501H5.5ZM7 9.50013C7 9.08591 6.66421 8.75013 6.25 8.75013C5.83579 8.75013 5.5 9.08591 5.5 9.50013H7ZM8.45732 2.84175C8.646 3.2105 9.09788 3.35648 9.46662 3.1678C9.83537 2.97913 9.98135 2.52725 9.79268 2.1585L8.45732 2.84175ZM6.25 0.750127L6.24336 1.50016L6.25322 1.50012L6.25 0.750127ZM3.042 3.90013L2.292 3.89308V3.90013H3.042ZM2.292 4.88913C2.292 5.30334 2.62779 5.63913 3.042 5.63913C3.45621 5.63913 3.792 5.30334 3.792 4.88913H2.292ZM3.042 4.88913L3.40666 5.54456L3.41368 5.54055L3.042 4.88913ZM0.75 8.75013L0 8.74386V8.75013H0.75ZM0.75 10.2501H0C0 10.2561 7.09295e-05 10.262 0.000212729 10.268L0.75 10.2501ZM5.464 14.7501V14.0001C5.45834 14.0001 5.45269 14.0002 5.44703 14.0003L5.464 14.7501ZM7.036 14.7501L7.05297 14.0003C7.04731 14.0002 7.04166 14.0001 7.036 14.0001V14.7501ZM11.75 10.2501L12.4998 10.268C12.4999 10.262 12.5 10.2561 12.5 10.2501H11.75ZM11.75 8.75013H12.5C12.5 8.74417 12.4999 8.73822 12.4998 8.73226L11.75 8.75013ZM7.036 4.25013V5.00013C7.04166 5.00013 7.04731 5.00006 7.05297 4.99994L7.036 4.25013ZM5.464 4.25013L5.46206 5.00013H5.464V4.25013ZM7 11.2501V9.50013H5.5V11.2501H7ZM9.79268 2.1585C9.11202 0.828205 7.74109 -0.00627232 6.24678 0.000134051L6.25322 1.50012C7.18207 1.49614 8.03423 2.01484 8.45732 2.84175L9.79268 2.1585ZM6.25664 0.000156522C4.08708 -0.019043 2.31242 1.72354 2.29203 3.89308L3.79197 3.90717C3.80457 2.5657 4.90188 1.48823 6.24336 1.5001L6.25664 0.000156522ZM2.292 3.90013V4.88913H3.792V3.90013H2.292ZM2.67737 4.23373C1.03824 5.14568 0.0157041 6.86819 2.6226e-05 8.74386L1.49997 8.7564C1.51114 7.42064 2.23933 6.19396 3.40663 5.54452L2.67737 4.23373ZM0 8.75013V10.2501H1.5V8.75013H0ZM0.000212729 10.268C0.0706704 13.2254 2.52343 15.5669 5.48097 15.4999L5.44703 14.0003C3.31701 14.0485 1.55053 12.3622 1.49979 10.2323L0.000212729 10.268ZM5.464 15.5001H7.036V14.0001H5.464V15.5001ZM7.01903 15.4999C9.97657 15.5669 12.4293 13.2254 12.4998 10.268L11.0002 10.2323C10.9495 12.3622 9.18299 14.0485 7.05297 14.0003L7.01903 15.4999ZM12.5 10.2501V8.75013H11V10.2501H12.5ZM12.4998 8.73226C12.4293 5.77481 9.97657 3.4334 7.01903 3.50032L7.05297 4.99994C9.18299 4.95174 10.9495 6.63803 11.0002 8.76799L12.4998 8.73226ZM7.036 3.50013H5.464V5.00013H7.036V3.50013ZM5.46594 3.50013C4.48564 3.4976 3.52178 3.7519 2.67032 4.2377L3.41368 5.54055C4.03755 5.1846 4.74379 4.99827 5.46206 5.00012L5.46594 3.50013Z" fill="#F8F7F0"/>
</svg>
