<svg width="16" height="10" viewBox="0 0 16 10" fill="none" xmlns="http://www.w3.org/2000/svg">
<path d="M4.35112 9.28078C4.64426 9.57342 5.11913 9.57302 5.41178 9.27988C5.70442 8.98674 5.70402 8.51187 5.41088 8.21922L4.35112 9.28078ZM1.27988 4.09522C0.986739 3.80258 0.511865 3.80298 0.21922 4.09612C-0.0734243 4.38926 -0.0730217 4.86413 0.22012 5.15678L1.27988 4.09522ZM0.23682 4.07906C-0.0652483 4.36248 -0.080364 4.83711 0.203058 5.13918C0.486479 5.44125 0.961113 5.45636 1.26318 5.17294L0.23682 4.07906ZM5.39418 1.29694C5.69625 1.01352 5.71136 0.538887 5.42794 0.23682C5.14452 -0.0652483 4.66989 -0.080364 4.36782 0.203058L5.39418 1.29694ZM0.75 3.876C0.335786 3.876 0 4.21179 0 4.626C0 5.04021 0.335786 5.376 0.75 5.376V3.876ZM11.12 4.626L11.1223 3.876H11.12V4.626ZM13.6826 3.57345L14.2114 4.10532V4.10532L13.6826 3.57345ZM15.5 1.01907C15.5011 0.604857 15.1663 0.268146 14.7521 0.267003C14.3379 0.26586 14.0011 0.600719 14 1.01493L15.5 1.01907ZM5.41088 8.21922L1.27988 4.09522L0.22012 5.15678L4.35112 9.28078L5.41088 8.21922ZM1.26318 5.17294L5.39418 1.29694L4.36782 0.203058L0.23682 4.07906L1.26318 5.17294ZM0.75 5.376H11.12V3.876H0.75V5.376ZM11.1177 5.376C12.2767 5.37952 13.3895 4.92243 14.2114 4.10532L13.1538 3.04158C12.6141 3.57816 11.8833 3.87832 11.1223 3.876L11.1177 5.376ZM14.2114 4.10532C15.0333 3.2882 15.4968 2.17801 15.5 1.01907L14 1.01493C13.9979 1.77598 13.6935 2.505 13.1538 3.04158L14.2114 4.10532Z" fill="#F8F7F0"/>
</svg>
