<svg width="21" height="22" viewBox="0 0 21 22" fill="none" xmlns="http://www.w3.org/2000/svg">
<path d="M19.755 5.88358L19.2614 5.02698C18.8881 4.37915 18.7015 4.05523 18.3839 3.92607C18.0663 3.7969 17.7071 3.89883 16.9888 4.10267L15.7686 4.44637C15.31 4.55212 14.8288 4.49213 14.4101 4.27698L14.0732 4.08261C13.7141 3.85262 13.4379 3.51352 13.285 3.11493L12.9511 2.11754C12.7315 1.45753 12.6217 1.12752 12.3603 0.938758C12.099 0.75 11.7518 0.75 11.0574 0.75H9.94264C9.24828 0.75 8.9011 0.75 8.63973 0.938758C8.37835 1.12752 8.26856 1.45753 8.04899 2.11754L7.71503 3.11493C7.56215 3.51352 7.28595 3.85262 6.92687 4.08261L6.58999 4.27698C6.17124 4.49213 5.69009 4.55212 5.23148 4.44637L4.01125 4.10267C3.29291 3.89883 2.93375 3.7969 2.61617 3.92607C2.29859 4.05523 2.11195 4.37915 1.73865 5.02698L1.24507 5.88358C0.895156 6.49083 0.720203 6.79446 0.754157 7.11768C0.788114 7.4409 1.02233 7.70137 1.49076 8.22231L2.5218 9.37501C2.7738 9.69404 2.95271 10.25 2.95271 10.7498C2.95271 11.25 2.77386 11.8058 2.52183 12.1249L1.49076 13.2776C1.02233 13.7985 0.788116 14.059 0.754159 14.3822C0.720203 14.7055 0.895162 15.0091 1.24507 15.6163L1.73864 16.4729C2.11193 17.1207 2.29859 17.4447 2.61617 17.5738C2.93375 17.703 3.29292 17.6011 4.01127 17.3972L5.23144 17.0535C5.69013 16.9477 6.17137 17.0078 6.59017 17.223L6.927 17.4174C7.28601 17.6474 7.56214 17.9864 7.715 18.385L8.04899 19.3825C8.26856 20.0425 8.37835 20.3725 8.63973 20.5612C8.9011 20.75 9.24828 20.75 9.94264 20.75H11.0574C11.7518 20.75 12.099 20.75 12.3603 20.5612C12.6217 20.3725 12.7315 20.0425 12.9511 19.3825L13.2851 18.385C13.4379 17.9864 13.714 17.6474 14.0731 17.4174L14.4099 17.223C14.8287 17.0078 15.3099 16.9477 15.7686 17.0535L16.9888 17.3972C17.7071 17.6011 18.0663 17.703 18.3839 17.5738C18.7015 17.4447 18.8881 17.1207 19.2614 16.4729L19.755 15.6163C20.1049 15.0091 20.2798 14.7055 20.2459 14.3822C20.2119 14.059 19.9777 13.7985 19.5093 13.2776L18.4782 12.1249C18.2262 11.8058 18.0473 11.25 18.0473 10.7498C18.0473 10.25 18.2263 9.69404 18.4782 9.37501L19.5093 8.22231C19.9777 7.70137 20.2119 7.4409 20.2459 7.11768C20.2798 6.79446 20.1049 6.49083 19.755 5.88358Z" stroke="#242220" stroke-opacity="0.56" stroke-width="1.5" stroke-linecap="round"/>
<path d="M13.957 10.7422C13.957 12.6752 12.39 14.2422 10.457 14.2422C8.52403 14.2422 6.95703 12.6752 6.95703 10.7422C6.95703 8.80919 8.52403 7.24219 10.457 7.24219C12.39 7.24219 13.957 8.80919 13.957 10.7422Z" stroke="#242220" stroke-opacity="0.56" stroke-width="1.5"/>
</svg>
