<svg width="16" height="16" viewBox="0 0 16 16" fill="none" xmlns="http://www.w3.org/2000/svg">
<path d="M5.35455 11.25C5.35455 11.6642 5.69033 12 6.10455 12C6.51876 12 6.85455 11.6642 6.85455 11.25H5.35455ZM6.85455 9.5C6.85455 9.08579 6.51876 8.75 6.10455 8.75C5.69033 8.75 5.35455 9.08579 5.35455 9.5H6.85455ZM8.23655 4.36C8.23655 4.77421 8.57234 5.11 8.98655 5.11C9.40076 5.11 9.73655 4.77421 9.73655 4.36H8.23655ZM8.98655 3.9H9.73655C9.73655 3.8894 9.73632 3.8788 9.73588 3.86821L8.98655 3.9ZM11.8695 0.75L11.9043 0.000806868C11.8812 -0.000265121 11.8581 -0.000268936 11.835 0.000795424L11.8695 0.75ZM14.7515 3.9L14.0022 3.8682C14.0018 3.8788 14.0015 3.8894 14.0015 3.9H14.7515ZM14.0015 4.36C14.0015 4.77421 14.3373 5.11 14.7515 5.11C15.1658 5.11 15.5015 4.77421 15.5015 4.36H14.0015ZM8.98655 4.36L9.20233 3.64171C9.19626 3.63989 9.19016 3.63814 9.18404 3.63647L8.98655 4.36ZM8.16255 4.25V5L8.16333 5L8.16255 4.25ZM4.04555 4.25L4.04477 5H4.04555V4.25ZM3.22155 4.36L3.02406 3.63647C3.01787 3.63816 3.0117 3.63993 3.00555 3.64178L3.22155 4.36ZM0.751548 7.75H1.50155C1.50155 7.74517 1.5015 7.74034 1.50141 7.73551L0.751548 7.75ZM0.751548 11.25L1.50121 11.2724C1.50144 11.2649 1.50155 11.2575 1.50155 11.25H0.751548ZM4.04555 14.75L4.0225 15.4996C4.03018 15.4999 4.03786 15.5 4.04555 15.5V14.75ZM8.16355 14.75V15.5C8.17123 15.5 8.17892 15.4999 8.1866 15.4996L8.16355 14.75ZM11.4575 11.25H10.7075C10.7075 11.2575 10.7077 11.2649 10.7079 11.2724L11.4575 11.25ZM11.4575 7.75L10.7077 7.73558C10.7076 7.74039 10.7075 7.74519 10.7075 7.75H11.4575ZM6.85455 11.25V9.5H5.35455V11.25H6.85455ZM9.73655 4.36V3.9H8.23655V4.36H9.73655ZM9.73588 3.86821C9.68276 2.61615 10.6522 1.55691 11.9041 1.4992L11.835 0.000795424C9.75775 0.0965419 8.14909 1.85418 8.23722 3.93179L9.73588 3.86821ZM11.8348 1.49919C13.0863 1.5573 14.0553 2.61641 14.0022 3.8682L15.5009 3.9318C15.589 1.85466 13.9811 0.0972179 11.9043 0.000806868L11.8348 1.49919ZM14.0015 3.9V4.36H15.5015V3.9H14.0015ZM9.18404 3.63647C8.8509 3.54554 8.50709 3.49964 8.16177 3.5L8.16333 5C8.3747 4.99978 8.58515 5.02787 8.78906 5.08353L9.18404 3.63647ZM8.16255 3.5H4.04555V5H8.16255V3.5ZM4.04633 3.5C3.70101 3.49964 3.35719 3.54554 3.02406 3.63647L3.41904 5.08353C3.62295 5.02787 3.8334 4.99978 4.04477 5L4.04633 3.5ZM3.00555 3.64178C1.19302 4.18688 -0.0348682 5.87212 0.00168824 7.76449L1.50141 7.73551C1.47785 6.51579 2.26928 5.42957 3.43755 5.07822L3.00555 3.64178ZM0.00154835 7.75V11.25H1.50155V7.75H0.00154835ZM0.00188333 11.2276C-0.0665694 13.5172 1.73297 15.4293 4.0225 15.4996L4.0686 14.0004C2.60661 13.9554 1.4575 12.7344 1.50121 11.2724L0.00188333 11.2276ZM4.04555 15.5H8.16355V14H4.04555V15.5ZM8.1866 15.4996C10.4761 15.4293 12.2757 13.5172 12.2072 11.2276L10.7079 11.2724C10.7516 12.7344 9.60249 13.9554 8.1405 14.0004L8.1866 15.4996ZM12.2075 11.25V7.75H10.7075V11.25H12.2075ZM12.2074 7.76442C12.2438 5.87171 11.0153 4.18637 9.20233 3.64171L8.77077 5.07829C9.93934 5.42934 10.7311 6.51564 10.7077 7.73558L12.2074 7.76442Z" fill="#F8F7F0"/>
</svg>
